<svg width="260" height="96" viewBox="0 0 260 96" fill="none" xmlns="http://www.w3.org/2000/svg">
<g filter="url(#filter0_d)">
<rect x="15" y="10" width="220" height="56" rx="10" fill="#5A98D0"/>
</g>
<path d="M68.2653 42.192C69.4013 42.192 70.3133 41.904 71.0013 41.344C71.6893 40.768 72.0413 40 72.0413 39.056C72.0413 38.48 71.8493 37.952 71.6413 37.616C71.4493 37.248 70.8893 36.864 70.5693 36.672C70.4093 36.56 70.1533 36.448 69.8173 36.32C69.4813 36.176 69.2253 36.08 69.0493 36.032L68.1853 35.728C67.3053 35.44 66.6653 35.152 66.2813 34.88C65.8973 34.608 65.7053 34.192 65.7053 33.632C65.7053 32.416 66.6333 31.696 68.0253 31.696C69.3533 31.696 70.2653 32.32 70.7773 33.552L71.7213 33.024C71.0973 31.616 69.7693 30.608 68.0253 30.608C67.0493 30.608 66.2333 30.88 65.5773 31.44C64.9213 31.984 64.5853 32.736 64.5853 33.68C64.5853 34.656 65.0173 35.392 65.8653 35.904C66.2333 36.144 67.0013 36.448 68.1693 36.832C69.1453 37.152 69.8493 37.456 70.2813 37.76C70.7133 38.064 70.9213 38.496 70.9213 39.088C70.9213 40.304 69.9453 41.104 68.2813 41.104C66.5693 41.104 65.4653 40.288 65.0653 38.896L64.1053 39.456C64.6813 41.168 66.2173 42.192 68.2653 42.192ZM78.2963 33.808C77.0643 33.808 76.0723 34.208 75.2883 35.008C74.5043 35.808 74.1203 36.8 74.1203 38C74.1203 39.216 74.5203 40.224 75.3043 41.008C76.0883 41.792 77.1123 42.192 78.3763 42.192C79.9283 42.192 81.1923 41.488 81.8963 40.352L80.9683 39.808C80.5203 40.624 79.6083 41.168 78.3923 41.168C76.6803 41.168 75.4163 40.144 75.2083 38.528H82.2323C82.2483 38.32 82.2643 38.144 82.2643 38.032C82.2643 36.896 81.8963 35.904 81.1603 35.072C80.4403 34.224 79.4803 33.808 78.2963 33.808ZM78.2963 34.832C79.0163 34.832 79.6563 35.072 80.2003 35.536C80.7443 36 81.0643 36.656 81.1763 37.504H75.2083C75.4163 35.92 76.6323 34.832 78.2963 34.832ZM88.2801 33.808C87.0481 33.808 86.0561 34.208 85.2721 35.008C84.4881 35.808 84.1041 36.8 84.1041 38C84.1041 39.216 84.5041 40.224 85.2881 41.008C86.0721 41.792 87.0961 42.192 88.3601 42.192C89.9121 42.192 91.1761 41.488 91.8801 40.352L90.9521 39.808C90.5041 40.624 89.5921 41.168 88.3761 41.168C86.6641 41.168 85.4001 40.144 85.1921 38.528H92.2161C92.2321 38.32 92.2481 38.144 92.2481 38.032C92.2481 36.896 91.8801 35.904 91.1441 35.072C90.4241 34.224 89.4641 33.808 88.2801 33.808ZM88.2801 34.832C89.0001 34.832 89.6401 35.072 90.1841 35.536C90.7281 36 91.0481 36.656 91.1601 37.504H85.1921C85.4001 35.92 86.6161 34.832 88.2801 34.832ZM108.632 40.512C109.752 39.376 110.312 38.016 110.312 36.4C110.312 34.784 109.752 33.424 108.632 32.304C107.512 31.168 106.136 30.608 104.52 30.608C102.904 30.608 101.528 31.168 100.408 32.304C99.2878 33.424 98.7278 34.784 98.7278 36.4C98.7278 38.016 99.2878 39.376 100.408 40.512C101.528 41.632 102.904 42.192 104.52 42.192C106.136 42.192 107.512 41.632 108.632 40.512ZM101.192 39.744C100.296 38.832 99.8478 37.712 99.8478 36.4C99.8478 35.088 100.296 33.984 101.192 33.072C102.088 32.16 103.192 31.696 104.52 31.696C105.848 31.696 106.952 32.16 107.848 33.072C108.744 33.984 109.192 35.088 109.192 36.4C109.192 37.712 108.744 38.832 107.848 39.744C106.952 40.656 105.848 41.104 104.52 41.104C103.192 41.104 102.088 40.656 101.192 39.744ZM118.417 38.192C118.417 40.224 117.361 41.168 115.825 41.168C114.433 41.168 113.649 40.336 113.649 38.912V34H112.593V38.912C112.593 40.912 113.793 42.192 115.729 42.192C116.929 42.192 117.825 41.712 118.417 40.752V42H119.473V34H118.417V38.192ZM123.403 34H122.347V42H123.403V37.552C123.403 35.712 124.475 34.896 125.931 34.896V33.872C124.731 33.872 123.899 34.352 123.403 35.328V34ZM132.818 30.8V42H133.938V37.84H136.818C137.826 37.84 138.658 37.504 139.33 36.832C140.002 36.16 140.338 35.328 140.338 34.32C140.338 33.312 140.002 32.48 139.33 31.808C138.658 31.136 137.826 30.8 136.818 30.8H132.818ZM133.938 36.784V31.856H136.818C137.506 31.856 138.082 32.096 138.53 32.56C138.994 33.024 139.218 33.6 139.218 34.32C139.218 35.04 138.994 35.632 138.53 36.096C138.082 36.56 137.506 36.784 136.818 36.784H133.938ZM143.636 34H142.58V42H143.636V37.552C143.636 35.712 144.708 34.896 146.164 34.896V33.872C144.964 33.872 144.132 34.352 143.636 35.328V34ZM154.471 40.992C155.287 40.176 155.703 39.184 155.703 38C155.703 36.816 155.287 35.824 154.471 35.024C153.655 34.208 152.663 33.808 151.495 33.808C150.327 33.808 149.319 34.208 148.503 35.024C147.687 35.824 147.287 36.816 147.287 38C147.287 39.184 147.687 40.176 148.503 40.992C149.319 41.792 150.327 42.192 151.495 42.192C152.663 42.192 153.655 41.792 154.471 40.992ZM149.255 40.256C148.647 39.632 148.343 38.88 148.343 38C148.343 37.12 148.647 36.368 149.255 35.76C149.863 35.136 150.615 34.832 151.495 34.832C152.375 34.832 153.127 35.136 153.735 35.76C154.343 36.368 154.647 37.12 154.647 38C154.647 38.88 154.343 39.632 153.735 40.256C153.127 40.864 152.375 41.168 151.495 41.168C150.615 41.168 149.863 40.864 149.255 40.256ZM158.243 30.992C157.939 31.296 157.939 31.776 158.243 32.08C158.547 32.384 159.027 32.384 159.331 32.08C159.635 31.776 159.635 31.296 159.331 30.992C159.027 30.688 158.547 30.688 158.243 30.992ZM158.259 42.64C158.259 44 157.699 44.496 156.435 44.368V45.392C158.275 45.568 159.315 44.56 159.315 42.64V34H158.259V42.64ZM165.899 33.808C164.667 33.808 163.675 34.208 162.891 35.008C162.107 35.808 161.723 36.8 161.723 38C161.723 39.216 162.123 40.224 162.907 41.008C163.691 41.792 164.715 42.192 165.979 42.192C167.531 42.192 168.795 41.488 169.499 40.352L168.571 39.808C168.123 40.624 167.211 41.168 165.995 41.168C164.283 41.168 163.019 40.144 162.811 38.528H169.835C169.851 38.32 169.867 38.144 169.867 38.032C169.867 36.896 169.499 35.904 168.763 35.072C168.043 34.224 167.083 33.808 165.899 33.808ZM165.899 34.832C166.619 34.832 167.259 35.072 167.803 35.536C168.347 36 168.667 36.656 168.779 37.504H162.811C163.019 35.92 164.235 34.832 165.899 34.832ZM175.915 42.192C177.467 42.192 178.843 41.392 179.499 40.112L178.619 39.6C178.091 40.56 177.115 41.168 175.915 41.168C175.035 41.168 174.283 40.864 173.675 40.256C173.067 39.632 172.763 38.88 172.763 38C172.763 37.12 173.067 36.368 173.675 35.76C174.283 35.136 175.035 34.832 175.915 34.832C177.115 34.832 178.123 35.44 178.555 36.4L179.419 35.904C178.843 34.624 177.499 33.808 175.915 33.808C174.715 33.808 173.707 34.208 172.907 35.024C172.107 35.824 171.707 36.816 171.707 38C171.707 39.184 172.107 40.176 172.907 40.992C173.707 41.792 174.715 42.192 175.915 42.192ZM185.895 34H183.591V31.76L182.535 32.08V34H180.855V35.024H182.535V39.872C182.535 41.728 183.655 42.336 185.895 42V41.072C184.359 41.136 183.591 41.248 183.591 39.872V35.024H185.895V34Z" fill="white"/>
<defs>
<filter id="filter0_d" x="0" y="0" width="260" height="96" filterUnits="userSpaceOnUse" color-interpolation-filters="sRGB">
<feFlood flood-opacity="0" result="BackgroundImageFix"/>
<feColorMatrix in="SourceAlpha" type="matrix" values="0 0 0 0 0 0 0 0 0 0 0 0 0 0 0 0 0 0 127 0"/>
<feOffset dx="5" dy="10"/>
<feGaussianBlur stdDeviation="10"/>
<feColorMatrix type="matrix" values="0 0 0 0 0.207843 0 0 0 0 0.431373 0 0 0 0 0.678431 0 0 0 0.2 0"/>
<feBlend mode="normal" in2="BackgroundImageFix" result="effect1_dropShadow"/>
<feBlend mode="normal" in="SourceGraphic" in2="effect1_dropShadow" result="shape"/>
</filter>
</defs>
</svg>
