<svg width="72" height="61" viewBox="0 0 72 61" fill="none" xmlns="http://www.w3.org/2000/svg">
<g filter="url(#filter0_d)">
<path d="M44.2844 10.0114H16.8538C13.0685 10.0114 10 12.2972 10 15.1168V35.5501C10 38.3697 13.0685 40.6555 16.8538 40.6555H44.2844C48.0696 40.6555 51.1382 38.3697 51.1382 35.5501V15.1168C51.1382 12.2972 48.0696 10.0114 44.2844 10.0114Z" fill="#F2C94C"/>
</g>
<path d="M40 22.7622C40 19.012 36 16.0118 31 16.0118C26 16.0118 22 19.012 22 22.7622C22 25.0874 23.6 27.1875 26 28.3876V30.2627C26 31.2378 26.8 32.0628 28 32.3629V32.5129C28 33.788 29.3 34.763 31 34.763C32.7 34.763 34 33.788 34 32.5129V32.3629C35.2 32.0628 36 31.2378 36 30.2627V28.3876C38.4 27.1875 40 25.0874 40 22.7622ZM24 22.7622C24 19.8371 27.1 17.5119 31 17.5119C34.9 17.5119 38 19.8371 38 22.7622C38 25.3874 35.4 27.5626 32 27.9376V26.0625L33.7 24.7874C34.1 24.4874 34.1 24.0373 33.7 23.7373C33.3 23.4373 32.7 23.4373 32.3 23.7373L31 24.7124L29.7 23.7373C29.3 23.4373 28.7 23.4373 28.3 23.7373C27.9 24.0373 27.9 24.4874 28.3 24.7874L30 26.0625V27.9376C26.6 27.5626 24 25.3874 24 22.7622ZM31 33.2629C30.4 33.2629 30 32.9629 30 32.5129H32C32 32.9629 31.6 33.2629 31 33.2629ZM34 30.2627C34 30.7128 33.6 31.0128 33 31.0128H29C28.4 31.0128 28 30.7128 28 30.2627V29.1377C28.9 29.3627 29.9 29.5127 31 29.5127C32.1 29.5127 33.1 29.3627 34 29.1377V30.2627Z" fill="white"/>
<defs>
<filter id="filter0_d" x="0" y="0.0114136" width="71.1382" height="60.6441" filterUnits="userSpaceOnUse" color-interpolation-filters="sRGB">
<feFlood flood-opacity="0" result="BackgroundImageFix"/>
<feColorMatrix in="SourceAlpha" type="matrix" values="0 0 0 0 0 0 0 0 0 0 0 0 0 0 0 0 0 0 127 0"/>
<feOffset dx="5" dy="5"/>
<feGaussianBlur stdDeviation="7.5"/>
<feColorMatrix type="matrix" values="0 0 0 0 0 0 0 0 0 0 0 0 0 0 0 0 0 0 0.15 0"/>
<feBlend mode="normal" in2="BackgroundImageFix" result="effect1_dropShadow"/>
<feBlend mode="normal" in="SourceGraphic" in2="effect1_dropShadow" result="shape"/>
</filter>
</defs>
</svg>
