<svg width="72" height="62" viewBox="0 0 72 62" fill="none" xmlns="http://www.w3.org/2000/svg">
<g filter="url(#filter0_d)">
<path d="M44.4231 10.7564H16.9925C13.2072 10.7564 10.1387 13.0422 10.1387 15.8619V36.2951C10.1387 39.1147 13.2072 41.4005 16.9925 41.4005H44.4231C48.2083 41.4005 51.2769 39.1147 51.2769 36.2951V15.8619C51.2769 13.0422 48.2083 10.7564 44.4231 10.7564Z" fill="#56CCF2"/>
</g>
<path d="M41 25.0074H36.83L40.07 22.5772L38.66 21.5121L34 25.0074H32V23.5073L36.66 20.012L35.24 18.9545L32 21.3846V18.2569H30V21.3846L26.76 18.9545L25.34 20.012L30 23.5073V25.0074H28L23.34 21.5121L21.93 22.5772L25.17 25.0074H21V26.5075H25.17L21.93 28.9376L23.34 30.0027L28 26.5075H30V28.0076L25.34 31.5028L26.76 32.5604L30 30.1302V33.2579H32V30.1302L35.24 32.5604L36.66 31.5028L32 28.0076V26.5075H34L38.66 30.0027L40.07 28.9376L36.83 26.5075H41V25.0074Z" fill="white"/>
<defs>
<filter id="filter0_d" x="0.138672" y="0.756439" width="71.1382" height="60.6441" filterUnits="userSpaceOnUse" color-interpolation-filters="sRGB">
<feFlood flood-opacity="0" result="BackgroundImageFix"/>
<feColorMatrix in="SourceAlpha" type="matrix" values="0 0 0 0 0 0 0 0 0 0 0 0 0 0 0 0 0 0 127 0"/>
<feOffset dx="5" dy="5"/>
<feGaussianBlur stdDeviation="7.5"/>
<feColorMatrix type="matrix" values="0 0 0 0 0 0 0 0 0 0 0 0 0 0 0 0 0 0 0.15 0"/>
<feBlend mode="normal" in2="BackgroundImageFix" result="effect1_dropShadow"/>
<feBlend mode="normal" in="SourceGraphic" in2="effect1_dropShadow" result="shape"/>
</filter>
</defs>
</svg>
