<svg width="528" height="172" viewBox="0 0 528 172" fill="none" xmlns="http://www.w3.org/2000/svg">
<g filter="url(#filter0_d)">
<g filter="url(#filter1_d)">
<rect x="45" y="30" width="428" height="72" rx="10" fill="#5A98D0"/>
</g>
<path d="M235.139 70.208C236.323 70.208 237.283 69.92 238.003 69.328C238.739 68.736 239.107 67.92 239.107 66.912C239.187 65.84 238.547 65.072 237.955 64.608C237.779 64.464 237.507 64.304 237.139 64.16C236.787 64.016 236.515 63.904 236.307 63.84C236.115 63.76 235.811 63.664 235.379 63.52C233.667 62.992 233.123 62.608 233.123 61.776C233.123 60.928 233.811 60.384 234.883 60.384C235.987 60.384 236.771 60.912 237.235 61.952L238.787 61.056C238.067 59.52 236.675 58.592 234.883 58.592C233.891 58.592 233.043 58.88 232.339 59.472C231.635 60.048 231.283 60.832 231.283 61.824C231.283 62.832 231.651 63.568 232.371 64.08C233.123 64.576 233.651 64.784 234.723 65.104C235.667 65.392 236.339 65.664 236.707 65.904C237.075 66.144 237.267 66.48 237.267 66.944C237.267 67.824 236.579 68.416 235.187 68.416C233.779 68.416 232.851 67.792 232.403 66.528L230.819 67.456C231.411 69.168 232.979 70.208 235.139 70.208ZM241.235 66.288C241.235 67.488 241.636 68.432 242.42 69.152C243.204 69.856 244.227 70.208 245.476 70.208C246.724 70.208 247.748 69.856 248.532 69.152C249.316 68.432 249.716 67.488 249.716 66.288V58.8H247.876V66.176C247.876 67.536 247.076 68.416 245.476 68.416C243.876 68.416 243.076 67.536 243.076 66.176V58.8H241.235V66.288ZM259.064 64.192C259.816 63.632 260.2 62.88 260.2 61.904C260.2 61.024 259.88 60.288 259.24 59.696C258.616 59.104 257.832 58.8 256.92 58.8H252.472V70H257.272C258.216 70 259 69.696 259.656 69.088C260.312 68.48 260.632 67.712 260.632 66.8C260.632 65.632 260.04 64.704 259.064 64.192ZM256.92 60.528C257.736 60.528 258.36 61.168 258.36 62C258.36 62.832 257.736 63.472 256.92 63.472H254.312V60.528H256.92ZM254.312 68.272V65.136H257.272C258.12 65.136 258.792 65.824 258.792 66.704C258.792 67.584 258.12 68.272 257.272 68.272H254.312ZM271.63 58.8L268.238 64.4L264.861 58.8H262.877V70H264.717V62L268.126 67.648H268.35L271.757 62.016V70H273.597V58.8H271.63ZM276.471 70H278.311V58.8H276.471V70ZM280.309 58.8V60.56H283.477V70H285.317V60.56H288.469V58.8H280.309Z" fill="white"/>
</g>
<defs>
<filter id="filter0_d" x="30" y="20" width="468" height="112" filterUnits="userSpaceOnUse" color-interpolation-filters="sRGB">
<feFlood flood-opacity="0" result="BackgroundImageFix"/>
<feColorMatrix in="SourceAlpha" type="matrix" values="0 0 0 0 0 0 0 0 0 0 0 0 0 0 0 0 0 0 127 0"/>
<feOffset dx="5" dy="10"/>
<feGaussianBlur stdDeviation="10"/>
<feColorMatrix type="matrix" values="0 0 0 0 0.0627451 0 0 0 0 0.439216 0 0 0 0 0.694118 0 0 0 0.2 0"/>
<feBlend mode="normal" in2="BackgroundImageFix" result="effect1_dropShadow"/>
<feBlend mode="normal" in="SourceGraphic" in2="effect1_dropShadow" result="shape"/>
</filter>
<filter id="filter1_d" x="0" y="0" width="528" height="172" filterUnits="userSpaceOnUse" color-interpolation-filters="sRGB">
<feFlood flood-opacity="0" result="BackgroundImageFix"/>
<feColorMatrix in="SourceAlpha" type="matrix" values="0 0 0 0 0 0 0 0 0 0 0 0 0 0 0 0 0 0 127 0"/>
<feOffset dx="5" dy="20"/>
<feGaussianBlur stdDeviation="25"/>
<feColorMatrix type="matrix" values="0 0 0 0 0.0627451 0 0 0 0 0.439216 0 0 0 0 0.694118 0 0 0 0.2 0"/>
<feBlend mode="normal" in2="BackgroundImageFix" result="effect1_dropShadow"/>
<feBlend mode="normal" in="SourceGraphic" in2="effect1_dropShadow" result="shape"/>
</filter>
</defs>
</svg>
