<svg width="220" height="57" viewBox="0 0 220 57" fill="none" xmlns="http://www.w3.org/2000/svg">
<rect y="0.0810547" width="220" height="56" rx="10" fill="#5A98D0"/>
<path d="M77.4653 20.8811H76.3453V32.0811H82.5853V31.0251H77.4653V20.8811ZM87.9588 23.8891C86.7268 23.8891 85.7348 24.2891 84.9508 25.0891C84.1668 25.8891 83.7828 26.8811 83.7828 28.0811C83.7828 29.2971 84.1828 30.3051 84.9668 31.0891C85.7508 31.8731 86.7748 32.2731 88.0388 32.2731C89.5908 32.2731 90.8548 31.5691 91.5588 30.4331L90.6308 29.8891C90.1828 30.7051 89.2708 31.2491 88.0548 31.2491C86.3428 31.2491 85.0788 30.2251 84.8708 28.6091H91.8948C91.9108 28.4011 91.9268 28.2251 91.9268 28.1131C91.9268 26.9771 91.5588 25.9851 90.8228 25.1531C90.1028 24.3051 89.1428 23.8891 87.9588 23.8891ZM87.9588 24.9131C88.6788 24.9131 89.3188 25.1531 89.8628 25.6171C90.4068 26.0811 90.7268 26.7371 90.8388 27.5851H84.8708C85.0788 26.0011 86.2948 24.9131 87.9588 24.9131ZM98.2522 24.0811H95.9482V21.8411L94.8922 22.1611V24.0811H93.2122V25.1051H94.8922V29.9531C94.8922 31.8091 96.0122 32.4171 98.2522 32.0811V31.1531C96.7162 31.2171 95.9482 31.3291 95.9482 29.9531V25.1051H98.2522V24.0811ZM101.288 20.8811L100.648 24.4811H101.608L102.568 20.8811H101.288ZM104.843 26.1771C104.843 25.3611 105.611 24.9131 106.523 24.9131C107.499 24.9131 108.139 25.2811 108.443 26.0331L109.323 25.5211C108.859 24.5131 107.819 23.8891 106.523 23.8891C105.739 23.8891 105.083 24.1131 104.555 24.5451C104.043 24.9771 103.787 25.5211 103.787 26.1771C103.787 27.9051 105.467 28.2731 106.811 28.6091C107.723 28.8491 108.459 29.2491 108.459 29.9691C108.459 30.8491 107.659 31.2491 106.619 31.2491C105.547 31.2491 104.731 30.7371 104.427 29.9051L103.531 30.4331C103.963 31.5211 105.083 32.2731 106.619 32.2731C107.467 32.2731 108.171 32.0651 108.699 31.6331C109.243 31.2011 109.515 30.6571 109.515 29.9691C109.515 28.2411 107.835 27.8731 106.491 27.5371C105.579 27.2971 104.843 26.8971 104.843 26.1771ZM115.757 20.8811V21.9371H119.197V32.0811H120.317V21.9371H123.757V20.8811H115.757ZM131.28 25.6491C130.544 24.4811 129.472 23.8891 128.048 23.8891C126.912 23.8891 125.936 24.2891 125.12 25.1051C124.32 25.9211 123.92 26.9131 123.92 28.0811C123.92 29.2491 124.32 30.2411 125.12 31.0571C125.936 31.8731 126.912 32.2731 128.048 32.2731C129.472 32.2731 130.544 31.6811 131.28 30.5131V32.0811H132.336V24.0811H131.28V25.6491ZM125.888 30.3371C125.28 29.7131 124.976 28.9611 124.976 28.0811C124.976 27.2011 125.28 26.4491 125.888 25.8411C126.496 25.2171 127.248 24.9131 128.128 24.9131C129.008 24.9131 129.76 25.2171 130.368 25.8411C130.976 26.4491 131.28 27.2011 131.28 28.0811C131.28 28.9611 130.976 29.7131 130.368 30.3371C129.76 30.9451 129.008 31.2491 128.128 31.2491C127.248 31.2491 126.496 30.9451 125.888 30.3371ZM136.268 32.0811V20.4011H135.212V32.0811H136.268ZM141.324 27.9211L145.452 24.0811H144.012L140.204 27.6171V20.8811H139.148V32.0811H140.204V28.2251L144.204 32.0811H145.612L141.324 27.9211Z" fill="white"/>
</svg>
